<?xml version="1.0" encoding="utf-8"?>
<!-- Generator: Adobe Illustrator 24.0.1, SVG Export Plug-In . SVG Version: 6.00 Build 0)  -->
<svg version="1.1" id="Layer_1" xmlns="http://www.w3.org/2000/svg" xmlns:xlink="http://www.w3.org/1999/xlink" x="0px" y="0px"
	 viewBox="0 0 237.43 107.54" style="enable-background:new 0 0 237.43 107.54;" xml:space="preserve">
<style type="text/css">
	.st0{fill:#FFFFFF;}
</style>
<path class="st0" d="M221.62,62.31c-4.36-0.96-8.64-0.69-12.75,1.2c-1.92,0.88-3.87,1.68-6.03,1.76c-3.48,0.12-5.32-1.77-5.02-5.25
	c0.21-2.33,1.02-4.47,2.12-6.53c3.35-6.28,7.06-12.35,10.64-18.5c1.1-1.88,2.07-3.82,2.75-5.9c4.2-12.79-2.89-25.53-15.76-27.7
	c-8.88-1.5-16.65,1.38-23.3,7.34c-4.31,3.87-7.76,8.45-10.66,13.42c-6.48,11.09-12.89,22.22-19.31,33.35
	c-1.12,1.94-2.27,3.86-3.79,5.53c-2.81,3.09-6.33,4.43-10.45,4.21c-5.35-0.28-9.1-4.72-8.58-10.05c0.16-1.66,0.7-3.21,1.46-4.69
	c2.77-5.4,6.09-10.48,9.14-15.71c0.93-1.6,1.8-3.22,2.43-4.96c4.72-12.95-2.36-26.18-15.54-28.44c-8.64-1.48-16.28,1.23-22.85,6.95
	c-5.24,4.56-9.1,10.21-12.56,16.17c-6.02,10.37-11.99,20.76-18,31.14c-1.45,2.51-2.82,5.09-4.86,7.19c-3,3.09-7.19,3.28-10.48,0.5
	c-0.85-0.72-1.63-1.54-2.41-2.34c-1.8-1.85-3.69-3.58-5.95-4.87c-9.3-5.29-18.66-4.6-27.68,0.39C5.15,61.54,1.3,69.85,1,78.14
	c-0.07,19.47,14.93,31.36,32.5,27.71c8.75-1.82,15.01-7.04,19.99-14.11c2.2-3.13,4.4-6.25,6.98-9.09c3.13-3.45,6.6-6.52,11.14-7.95
	c12.47-3.93,21.62,1.31,24.82,12.99c0.28,1.02,0.48,2.05,0.74,3.07c2.56,10.32,9.47,15.79,20.12,15.63
	c11.47-0.17,20.21-5.57,26.98-14.54c1.98-2.63,3.88-5.33,5.95-7.89c2.67-3.31,5.78-6.14,9.59-8.13c12.11-6.33,24.3-0.89,27.6,12.3
	c0.24,0.96,0.44,1.93,0.72,2.88c1.78,6.01,5.4,10.51,11.1,13.19c14.18,6.69,32.18-1.61,36.33-16.71
	C238.8,75.69,232.79,64.78,221.62,62.31z"/>
</svg>
